<svg width="47" height="48" viewBox="0 0 47 48" fill="none" xmlns="http://www.w3.org/2000/svg">
<path d="M20.2334 28.2L15.2167 23.1833C14.7889 22.7555 14.2445 22.5416 13.5834 22.5416C12.9222 22.5416 12.3778 22.7555 11.95 23.1833C11.5222 23.6111 11.3084 24.1555 11.3084 24.8166C11.3084 25.4777 11.5222 26.0222 11.95 26.45L18.6 33.1C19.0667 33.5666 19.6111 33.8 20.2334 33.8C20.8556 33.8 21.4 33.5666 21.8667 33.1L35.05 19.9166C35.4778 19.4888 35.6917 18.9444 35.6917 18.2833C35.6917 17.6222 35.4778 17.0777 35.05 16.65C34.6222 16.2222 34.0778 16.0083 33.4167 16.0083C32.7556 16.0083 32.2111 16.2222 31.7834 16.65L20.2334 28.2ZM23.5 47.3333C20.2722 47.3333 17.2389 46.7208 14.4 45.4958C11.5611 44.2708 9.09169 42.6083 6.99169 40.5083C4.89169 38.4083 3.22919 35.9389 2.00419 33.1C0.779187 30.2611 0.166687 27.2277 0.166687 24C0.166687 20.7722 0.779187 17.7388 2.00419 14.9C3.22919 12.0611 4.89169 9.59163 6.99169 7.49163C9.09169 5.39163 11.5611 3.72913 14.4 2.50413C17.2389 1.27913 20.2722 0.666626 23.5 0.666626C26.7278 0.666626 29.7611 1.27913 32.6 2.50413C35.4389 3.72913 37.9084 5.39163 40.0084 7.49163C42.1084 9.59163 43.7709 12.0611 44.9959 14.9C46.2209 17.7388 46.8334 20.7722 46.8334 24C46.8334 27.2277 46.2209 30.2611 44.9959 33.1C43.7709 35.9389 42.1084 38.4083 40.0084 40.5083C37.9084 42.6083 35.4389 44.2708 32.6 45.4958C29.7611 46.7208 26.7278 47.3333 23.5 47.3333ZM23.5 42.6666C28.7111 42.6666 33.125 40.8583 36.7417 37.2416C40.3584 33.625 42.1667 29.2111 42.1667 24C42.1667 18.7888 40.3584 14.375 36.7417 10.7583C33.125 7.14163 28.7111 5.33329 23.5 5.33329C18.2889 5.33329 13.875 7.14163 10.2584 10.7583C6.64169 14.375 4.83335 18.7888 4.83335 24C4.83335 29.2111 6.64169 33.625 10.2584 37.2416C13.875 40.8583 18.2889 42.6666 23.5 42.6666Z" fill="url(#paint0_linear_4_5284)"/>
<defs>
<linearGradient id="paint0_linear_4_5284" x1="25.5417" y1="47.9166" x2="25.5416" y2="0.666623" gradientUnits="userSpaceOnUse">
<stop stop-color="#0073FF"/>
<stop offset="1" stop-color="#00C2FF"/>
</linearGradient>
</defs>
</svg>
