<svg width="50" height="70" viewBox="0 0 50 70" fill="none" xmlns="http://www.w3.org/2000/svg">
<g clip-path="url(#clip0_3175_188351)">
<mask id="mask0_3175_188351" style="mask-type:luminance" maskUnits="userSpaceOnUse" x="0" y="0" width="50" height="70">
<path d="M0 0H50V70H0V0Z" fill="white"/>
</mask>
<g mask="url(#mask0_3175_188351)">
<path fill-rule="evenodd" clip-rule="evenodd" d="M48.01 29.52C48.01 38.228 46.02 44.718 42.042 48.947C38.063 53.175 31.916 55.289 23.629 55.289C15.886 55.289 10.012 53.175 6.00702 48.947C2.00002 44.719 -0.000976562 38.342 -0.000976562 29.817V1.215C-0.000184444 0.893005 0.128078 0.584425 0.355764 0.35674C0.583449 0.129055 0.892029 0.000792118 1.21402 0L15.254 0C15.5759 0.00131631 15.8841 0.129748 16.1117 0.35732C16.3393 0.584891 16.4677 0.893167 16.469 1.215V30.442C16.469 33.923 17.113 36.602 18.424 38.492C19.4052 39.7931 20.8044 40.7167 22.3864 41.1077C23.9683 41.4987 25.6367 41.3332 27.111 40.639C28.0884 40.1792 28.9479 39.5023 29.624 38.66C30.906 36.887 31.544 34.274 31.54 30.82V25.347H48.01V29.52Z" fill="#133470"/>
<path fill-rule="evenodd" clip-rule="evenodd" d="M46.738 22.15H31.542V1.273C31.5428 0.935623 31.6772 0.612291 31.9157 0.373728C32.1543 0.135166 32.4776 0.000792278 32.815 0L35.09 0C35.0926 3.42345 36.4548 6.7057 38.877 9.125C41.2996 11.5451 44.5837 12.9046 48.008 12.905H48.012V22.15H46.738Z" fill="#133470"/>
<path fill-rule="evenodd" clip-rule="evenodd" d="M38.3262 0H46.7392C47.0765 0.00105488 47.3996 0.135513 47.6382 0.374018C47.8767 0.612524 48.0111 0.935704 48.0122 1.273V9.693C45.444 9.69247 42.9811 8.67222 41.1648 6.85651C39.3485 5.0408 38.3275 2.5782 38.3262 0.01V0Z" fill="#F4821F"/>
<path fill-rule="evenodd" clip-rule="evenodd" d="M2.75705 69.18C4.61605 69.18 5.51305 68.146 5.51305 66.627V62.966H4.18305V66.59C4.18305 66.97 4.03207 67.3345 3.76333 67.6033C3.49459 67.872 3.1301 68.023 2.75005 68.023C2.36999 68.023 2.0055 67.872 1.73676 67.6033C1.46802 67.3345 1.31705 66.97 1.31705 66.59V62.966H-0.00195312V66.638C-0.00195312 68.138 0.895047 69.182 2.75405 69.182L2.75705 69.18ZM13.541 69.07V67.927H10.593L13.478 64.007V62.963H8.89005V64.107H11.775L8.89005 68.016V69.066L13.541 69.07ZM19.756 69.18C20.2792 69.1919 20.7953 69.0578 21.2465 68.7926C21.6976 68.5275 22.0659 68.1418 22.31 67.679L21.19 67.139C21.0537 67.4037 20.8478 67.6263 20.5944 67.7828C20.341 67.9392 20.0498 68.0237 19.752 68.027C19.3684 68.0076 18.9984 67.8786 18.6859 67.6553C18.3734 67.4321 18.1315 67.1238 17.9889 66.7672C17.8462 66.4106 17.8089 66.0205 17.8812 65.6433C17.9536 65.2661 18.1326 64.9175 18.397 64.639C18.752 64.266 19.237 64.043 19.752 64.018C20.0493 64.0231 20.3397 64.1082 20.5927 64.2643C20.8457 64.4204 21.052 64.6417 21.19 64.905L22.31 64.355C22.0662 63.8927 21.6977 63.508 21.2462 63.2446C20.7948 62.9812 20.2785 62.8497 19.756 62.865C19.227 62.8496 18.7026 62.9672 18.2309 63.2072C17.7592 63.4471 17.3553 63.8017 17.0562 64.2383C16.7571 64.6749 16.5724 65.1797 16.5191 65.7062C16.4658 66.2328 16.5456 66.7643 16.751 67.252C16.9989 67.839 17.4186 68.3373 17.9549 68.6814C18.4913 69.0255 19.1191 69.1993 19.756 69.18ZM31.116 69.07L28.763 62.966H27.133L24.77 69.07H26.254L26.638 68.036H29.258L29.633 69.07H31.116ZM28.9 66.892H26.995L27.948 64.265L28.9 66.892ZM39.894 70.602L37.654 66.747C38.0543 66.6504 38.4077 66.4157 38.6521 66.0843C38.8965 65.7529 39.0161 65.3459 38.99 64.935C39.0004 64.6667 38.9537 64.3993 38.8532 64.1504C38.7527 63.9014 38.6006 63.6766 38.4069 63.4907C38.2133 63.3047 37.9824 63.162 37.7296 63.0717C37.4768 62.9814 37.2077 62.9457 36.94 62.967H34.08V69.072H35.38V66.902H36.333L38.4 70.601L39.894 70.602ZM36.747 65.759H35.383V64.112H36.743C36.8592 64.0985 36.9768 64.1098 37.0883 64.1451C37.1998 64.1803 37.3025 64.2387 37.3898 64.3165C37.4771 64.3943 37.547 64.4896 37.5948 64.5963C37.6427 64.703 37.6674 64.8186 37.6674 64.9355C37.6674 65.0524 37.6427 65.168 37.5948 65.2747C37.547 65.3813 37.4771 65.4767 37.3898 65.5545C37.3025 65.6322 37.1998 65.6907 37.0883 65.7259C36.9768 65.7612 36.8592 65.7724 36.743 65.759H36.747ZM44.774 69.072C46.688 69.072 48.016 67.864 48.016 66.024C48.016 64.184 46.685 62.967 44.774 62.967H42.366V69.072H44.774ZM44.774 67.928H43.666V64.112H44.774C45.03 64.0932 45.2871 64.1298 45.5276 64.2192C45.7682 64.3087 45.9867 64.4488 46.1683 64.6302C46.3499 64.8116 46.4903 65.03 46.58 65.2705C46.6697 65.511 46.7065 65.768 46.688 66.024C46.6993 66.2782 46.6572 66.5319 46.5646 66.7688C46.472 67.0058 46.3308 67.2208 46.1502 67.4C45.9696 67.5792 45.7535 67.7186 45.5158 67.8094C45.2782 67.9001 45.0241 67.9402 44.77 67.927L44.774 67.928ZM49.595 62.85V62.866C49.595 63.0906 49.5284 63.3102 49.4037 63.497C49.2789 63.6838 49.1015 63.8294 48.894 63.9154C48.6865 64.0014 48.4581 64.024 48.2378 63.9802C48.0175 63.9365 47.815 63.8284 47.6561 63.6696C47.4972 63.5108 47.3889 63.3085 47.345 63.0882C47.3011 62.8679 47.3234 62.6395 47.4092 62.4319C47.4951 62.2244 47.6405 62.0469 47.8272 61.9219C48.0139 61.797 48.2334 61.7302 48.458 61.73H49.594L49.595 62.85Z" fill="#133470"/>
</g>
</g>
<defs>
<clipPath id="clip0_3175_188351">
<rect width="50" height="70" fill="white"/>
</clipPath>
</defs>
</svg>
