<svg width="82" height="25" viewBox="0 0 82 25" fill="none" xmlns="http://www.w3.org/2000/svg">
<path d="M3.49486 14.6469C2.78787 14.6469 2.08087 14.6469 1.37434 14.6469C1.19033 14.6469 0.995247 14.6727 0.897015 14.4578C0.793249 14.2305 0.873496 14.0441 1.02154 13.8661C1.60124 13.1693 2.1791 12.4706 2.75512 11.771C5.79247 8.08103 8.8289 4.39064 11.8663 0.700249C12.0078 0.528228 12.1522 0.358513 12.2956 0.187875C12.4035 0.0601275 12.5188 -0.0657746 12.7042 0.038914C12.8786 0.137146 12.9427 0.299943 12.8896 0.490873C12.7706 0.919774 12.6438 1.34637 12.5156 1.7725C11.6813 4.55251 10.8461 7.3316 10.0114 10.1116C9.58063 11.5454 9.14943 12.9788 8.72422 14.4145C8.6781 14.5703 8.61215 14.6469 8.44013 14.6847C8.0223 14.7765 7.73867 15.0592 7.56296 15.4378C7.26226 16.0863 7.29639 16.7273 7.69301 17.3245C8.24735 18.1597 9.38463 18.061 9.84305 17.1364C10.164 16.4889 10.1299 15.8432 9.73559 15.2312C9.65858 15.1118 9.6309 15.0126 9.67425 14.8706C10.1115 13.4308 10.545 11.9896 10.9688 10.5456C11.0195 10.3731 11.1081 10.3408 11.2653 10.3413C12.7098 10.3454 14.1546 10.3441 15.5991 10.3431C15.7946 10.3431 15.992 10.3339 16.0861 10.559C16.1751 10.7716 16.0976 10.9418 15.9606 11.1073C14.4747 12.9092 12.9915 14.7138 11.507 16.517C9.26057 19.2458 7.01369 21.9742 4.76726 24.703C4.73775 24.7385 4.70962 24.7754 4.67826 24.8091C4.56757 24.9285 4.45735 25.071 4.27011 24.9599C4.09117 24.8533 4.03214 24.6846 4.08979 24.4839C4.23875 23.9679 4.38863 23.4518 4.54267 22.9371C5.77864 18.8188 7.01645 14.7013 8.24874 10.582C8.29624 10.4234 8.3608 10.3501 8.5319 10.3118C8.87502 10.2352 9.13052 10.0162 9.32145 9.71915C9.73928 9.06889 9.68855 8.14329 9.19785 7.56404C8.63936 6.90455 7.71884 6.95712 7.23598 7.67565C6.8163 8.30055 6.81215 9.12837 7.23736 9.76019C7.32314 9.88794 7.33928 9.99771 7.29455 10.1444C6.86196 11.5694 6.4326 12.9959 6.012 14.4251C5.96127 14.5966 5.88471 14.6529 5.70808 14.6506C4.97065 14.6414 4.23275 14.6469 3.49532 14.6469H3.49486Z" fill="#FCCF30"/>
<path d="M8.80167 8.74091C8.79337 8.88341 8.75878 9.03192 8.66423 9.15966C8.59921 9.24729 8.51758 9.31231 8.41012 9.34782C8.14125 9.43637 7.88345 9.29018 7.77 8.97842C7.64502 8.63576 7.79075 8.23545 8.08545 8.11185C8.3534 7.99932 8.60336 8.11693 8.73295 8.41485C8.77676 8.51493 8.80167 8.61823 8.80167 8.74091Z" fill="#FCCF30"/>
<path d="M9.2508 16.2721C9.2508 16.4464 9.1996 16.605 9.08754 16.7388C8.86294 17.0072 8.50599 16.991 8.3086 16.7019C8.14995 16.4694 8.13012 16.2176 8.24265 15.9608C8.33166 15.7569 8.48523 15.6199 8.71444 15.6158C8.93719 15.6121 9.07693 15.7546 9.17655 15.94C9.23189 16.0433 9.2508 16.1558 9.2508 16.2721Z" fill="#FCCF30"/>
<path d="M46.2551 11.0826C46.0434 11.8099 45.8513 12.4613 45.6652 13.1135C45.5013 13.6872 45.3476 14.2634 45.1829 14.8371C44.9677 15.5875 44.6374 15.8393 43.8673 15.8444C43.3697 15.8478 42.872 15.8487 42.3743 15.8461C41.6913 15.8427 41.3669 15.625 41.1467 14.9489C40.8342 13.9894 40.5516 13.0204 40.2597 12.0541C39.943 11.0074 39.6186 9.96254 39.3164 8.9108C39.0389 7.94529 39.3804 7.51162 40.3894 7.50906C41.3336 7.50649 41.6538 7.75663 41.8877 8.6769C42.2547 10.123 42.6201 11.5692 42.9889 13.0144C43.029 13.1715 43.0435 13.3431 43.1648 13.4729C43.3244 13.3935 43.3236 13.2535 43.3594 13.1391C43.8204 11.6597 44.2822 10.1811 44.7347 8.69909C45.0668 7.61321 46.1014 7.136 47.154 7.60297C47.5706 7.78736 47.7354 8.17067 47.8566 8.5719C48.298 10.0274 48.7316 11.4847 49.173 12.941C49.2259 13.1152 49.2464 13.3047 49.3779 13.4652C49.5665 13.402 49.5452 13.2219 49.5819 13.0853C49.9814 11.6042 50.41 10.129 50.7608 8.63678C51.0451 7.42967 51.9346 7.3571 52.965 7.60894C53.391 7.71309 53.5396 8.20993 53.3774 8.76738C53.0521 9.8857 52.7106 10.9998 52.3726 12.1147C52.1037 12.9991 51.8271 13.8801 51.5582 14.7645C51.3038 15.6028 50.9845 15.8453 50.1137 15.8461C49.6442 15.8461 49.1755 15.847 48.706 15.8436C47.9394 15.8376 47.6167 15.5875 47.4041 14.8234C47.1028 13.7418 46.8074 12.6576 46.5078 11.576C46.4677 11.4309 46.4514 11.2704 46.2568 11.0817L46.2551 11.0826Z" fill="#12ADC1"/>
<path d="M31.9959 8.95812C32.0378 8.69604 32.0548 8.51335 32.0975 8.33664C32.2307 7.78089 32.5739 7.52307 33.18 7.51112C33.8595 7.49746 34.2274 7.73479 34.3871 8.2931C34.4426 8.48517 34.4665 8.68067 34.4665 8.88214C34.4631 11.9545 34.4665 15.0269 34.4622 18.0993C34.4605 19.4652 33.6324 19.6112 32.6857 19.4302C32.1803 19.3338 31.9208 18.8796 31.9148 18.1975C31.9054 17.1731 31.9123 16.1495 31.9123 15.1251C31.9123 14.9979 31.9123 14.8707 31.9123 14.7171C31.8525 14.7427 31.8013 14.7469 31.7893 14.7717C31.3488 15.6476 30.5831 15.9805 29.6603 16.0189C28.6802 16.0599 27.6985 16.0838 26.7296 15.8729C25.5993 15.6271 24.9232 14.945 24.7798 13.7917C24.6065 12.3891 24.5928 10.983 24.819 9.58301C25 8.46212 25.6548 7.77064 26.7586 7.52307C27.9076 7.26526 29.0738 7.23623 30.2348 7.4027C31.2029 7.54185 31.3685 7.71601 31.9951 8.95812H31.9959ZM31.9669 11.7343C31.949 11.4543 31.9387 11.0983 31.9012 10.7457C31.8337 10.1131 31.5955 9.81009 30.9749 9.68972C30.0905 9.51813 29.1899 9.5335 28.3037 9.66923C27.6328 9.77253 27.4023 10.0577 27.2887 10.7474C27.1863 11.3689 27.188 11.9964 27.2674 12.617C27.3553 13.3008 27.6541 13.5928 28.3294 13.702C29.1489 13.8352 29.9727 13.8309 30.7931 13.7148C31.6135 13.5987 31.8713 13.3059 31.9225 12.4915C31.937 12.2644 31.949 12.0373 31.9669 11.7351V11.7343Z" fill="#12ADC1"/>
<path d="M60.6744 11.393C60.7444 10.8218 60.7342 10.3976 60.6625 9.97671C60.5899 9.54816 60.2852 9.32876 59.8882 9.304C58.6734 9.22717 57.4544 9.06583 56.3266 9.77951C55.7777 10.127 55.1272 9.93829 54.8575 9.47303C54.5424 8.93009 54.7115 8.28129 55.2604 7.90396C55.8358 7.50956 56.4991 7.402 57.1675 7.36956C58.5018 7.30468 59.8395 7.24577 61.1704 7.44468C62.515 7.6453 63.308 8.5502 63.3209 9.93317C63.3354 11.4835 63.3302 13.0346 63.3251 14.5849C63.3226 15.3037 62.976 15.7672 62.4151 15.8347C61.4487 15.9508 61.0441 15.716 60.8221 14.9127C60.8076 14.8606 60.7803 14.812 60.7222 14.6754C60.3039 15.9038 59.3094 15.99 58.3132 16.025C57.3485 16.0592 56.3787 16.0942 55.4286 15.8475C54.6585 15.6477 54.2044 15.1628 54.0798 14.374C53.9654 13.6501 53.9662 12.9287 54.1182 12.2108C54.2923 11.3896 54.7772 10.8628 55.6138 10.716C56.8969 10.4906 58.1894 10.5051 59.4818 10.6255C59.9497 10.669 60.3475 10.8722 60.6744 11.3921V11.393ZM58.6299 14.1111C58.6299 14.1111 58.6299 14.1085 58.6299 14.1068C59.0422 14.1068 59.4562 14.135 59.8652 14.1C60.4482 14.0505 60.7419 13.7329 60.759 13.2079C60.7752 12.6812 60.5575 12.4097 59.9343 12.3277C59.0738 12.2142 58.203 12.2082 57.3417 12.3269C56.7082 12.414 56.4871 12.694 56.5102 13.2497C56.5315 13.7585 56.8363 14.059 57.4381 14.1051C57.8334 14.1358 58.2329 14.1111 58.6307 14.1111H58.6299Z" fill="#12ADC1"/>
<path d="M78.7258 9.60177C78.2563 9.60177 77.7868 9.60861 77.3181 9.59836C77.0936 9.59324 76.9826 9.65129 76.986 9.90568C76.9988 10.8584 76.9672 11.812 77.0039 12.7638C77.0415 13.7242 77.9583 14.198 78.8086 13.7302C79.0237 13.6115 79.1125 13.4066 79.1808 13.183C79.3831 12.5197 79.7716 12.2115 80.2906 12.2909C80.7746 12.3651 81.1281 12.85 81.1477 13.4664C81.1955 14.98 80.5757 15.7619 79.0852 15.9779C78.1248 16.1171 77.1508 16.0906 76.1964 15.9122C75.1122 15.709 74.4668 14.8605 74.4352 13.6107C74.4053 12.4309 74.4147 11.2502 74.4258 10.0696C74.4284 9.75372 74.3951 9.58811 74.0024 9.58043C73.4262 9.56933 73.1146 9.16127 73.1094 8.54406C73.1043 7.95416 73.3954 7.58367 73.9734 7.53415C74.3054 7.50598 74.4301 7.38221 74.3976 7.05951C74.384 6.91951 74.3976 6.77523 74.4105 6.63352C74.4787 5.89423 74.8902 5.52715 75.65 5.52203C76.5003 5.51691 76.8895 5.84386 76.9809 6.62242C77.0133 6.89901 76.8554 7.255 77.0808 7.43427C77.3215 7.62635 77.6852 7.50172 77.9942 7.50599C78.6763 7.51709 79.3592 7.50172 80.0422 7.51281C80.7653 7.52476 81.1571 7.90892 81.146 8.56967C81.1349 9.21164 80.7405 9.5847 80.0473 9.59665C79.6068 9.60434 79.1655 9.59836 78.725 9.59836V9.60177H78.7258Z" fill="#12ADC1"/>
<path d="M65.532 11.8657C65.532 11.1409 65.5243 10.5288 65.5363 9.91756C65.5406 9.6828 65.4671 9.60255 65.2238 9.58633C64.5631 9.54365 64.225 9.18681 64.2114 8.56789C64.1977 7.94982 64.5076 7.59895 65.188 7.51871C65.4373 7.48968 65.5534 7.40774 65.5286 7.15249C65.5192 7.05346 65.5286 6.95358 65.5277 6.8537C65.5073 5.59281 66.4284 5.32219 67.4297 5.61586C67.8207 5.73025 68.006 6.0666 68.076 6.44991C68.111 6.64369 68.1178 6.84857 68.0982 7.04407C68.0632 7.39151 68.1836 7.52384 68.5464 7.5153C69.4419 7.49481 70.3382 7.50079 71.2346 7.51274C71.8791 7.52127 72.224 7.88153 72.2428 8.52777C72.2616 9.17486 71.8954 9.58206 71.2414 9.59316C70.3459 9.60852 69.4487 9.61365 68.5532 9.59316C68.2057 9.58462 68.0811 9.67682 68.0931 10.0413C68.1221 10.9223 68.0888 11.8059 68.1204 12.686C68.1579 13.7207 68.8341 14.1407 69.8158 13.7719C70.0437 13.6866 70.1914 13.5244 70.264 13.2913C70.3058 13.1556 70.3391 13.0156 70.3997 12.8884C70.5773 12.5145 70.8539 12.2703 71.2935 12.2823C71.7357 12.2934 71.9961 12.5597 72.1515 12.9404C72.6568 14.1825 71.8655 15.6816 70.5602 15.9215C69.5025 16.1161 68.4337 16.1008 67.376 15.9206C66.3712 15.7499 65.7634 15.0738 65.6037 14.0536C65.4834 13.2887 65.561 12.5196 65.5329 11.8657H65.532Z" fill="#12ADC1"/>
<path d="M38.8015 14.2372C38.8015 14.4361 38.8203 14.6367 38.7981 14.8331C38.7247 15.475 38.3371 15.8233 37.6943 15.8447C37.5662 15.8489 37.4382 15.8472 37.3101 15.8472C36.2515 15.8472 35.9015 15.51 35.8828 14.4592C35.8768 14.1467 35.8751 13.8317 35.9101 13.5227C35.9801 12.8969 36.3566 12.5597 36.9814 12.5256C37.0096 12.5239 37.0386 12.5256 37.0668 12.5239C38.5292 12.488 38.8228 12.7748 38.8006 14.2372H38.8015Z" fill="#12ADC1"/>
</svg>
